Coordinates
version=1
nRows=12
nColumns=24
inDegrees=yes

Units are S.I. units (second, meters, Newtons, ...)
Angles are in degrees.

endheader
time	pelvis_tilt	pelvis_list	pelvis_rotation	pelvis_tx	pelvis_ty	pelvis_tz	hip_flexion_r	hip_adduction_r	hip_rotation_r	knee_angle_r	ankle_angle_r	subtalar_angle_r	mtp_angle_r	hip_flexion_l	hip_adduction_l	hip_rotation_l	knee_angle_l	ankle_angle_l	subtalar_angle_l	mtp_angle_l	lumbar_extension	lumbar_bending	lumbar_rotation
      1.05433333	      0.00219237	     -0.00887135	     -4.59790304	     -0.00939183	      0.96897698	      0.30715419	    -13.77700664	      2.72660402	     -3.93630667	    -10.97554042	     17.64584598	      1.74084127	      3.29722202	     24.89155749	      0.86642165	     -6.30812697	     -1.58222105	      2.63869801	     -1.70095133	     -1.63527205	     -0.95332214	      3.88842180	      7.22961396
      1.05850000	     -0.06943893	      0.07378788	     -4.65953733	     -0.00338810	      0.96832481	      0.30689768	    -13.74880251	      2.54725167	     -4.01179970	    -11.60064981	     17.70467082	      1.96877776	      3.35638817	     24.87215067	      1.01029375	     -6.24040817	     -1.63152068	      2.45332305	     -2.03490723	     -1.48799156	     -0.84817600	      3.80144136	      7.38004982
      1.06266667	     -0.12261830	      0.17740328	     -4.71725430	      0.00270072	      0.96777299	      0.30667063	    -13.76634608	      2.35927972	     -3.98427823	    -12.17091771	     17.66178623	      1.92680188	      3.38544915	     24.84567422	      1.16675110	     -6.27205546	     -1.77205648	      2.26776830	     -2.20540139	     -1.42736734	     -0.73753215	      3.66983698	      7.41197291
      1.06683333	     -0.19143105	      0.27858338	     -4.77437074	      0.00878514	      0.96723743	      0.30643701	    -13.73185399	      2.17180043	     -3.96938065	    -12.81000627	     17.61628563	      1.91306820	      3.43214668	     24.84060015	      1.31936406	     -6.24440028	     -1.97205586	      2.02685432	     -2.51954654	     -1.34755183	     -0.61196036	      3.54980224	      7.48781152
      1.07100000	     -0.28230113	      0.35515455	     -4.82422056	      0.01485889	      0.96672061	      0.30618193	    -13.64443277	      2.01056999	     -3.96311566	    -13.50374246	     17.55806954	      1.93349144	      3.52926952	     24.86162479	      1.44942609	     -6.13686518	     -2.22291304	      1.70761539	     -3.01145035	     -1.20418438	     -0.46096674	      3.47043859	      7.59066630
      1.07516667	     -0.36352061	      0.46202956	     -4.86778673	      0.02100104	      0.96627488	      0.30593226	    -13.56465565	      1.82272488	     -3.92479782	    -14.19952975	     17.43453778	      1.86055075	      3.64388429	     24.87639274	      1.60741986	     -6.06287475	     -2.52557562	      1.36186249	     -3.44696288	     -1.05190714	     -0.31083498	      3.34197077	      7.64647052
      1.07933333	     -0.43211256	      0.57658484	     -4.90279891	      0.02717187	      0.96588357	      0.30566843	    -13.47791901	      1.62621520	     -3.89314680	    -14.93034081	     17.25530997	      1.76101596	      3.85194082	     24.87207899	      1.77832380	     -5.93363868	     -2.85474660	      1.00462816	     -3.97239807	     -0.80479393	     -0.16696426	      3.19550317	      7.70355398
      1.08350000	     -0.52625663	      0.69388042	     -4.93538731	      0.03335641	      0.96551302	      0.30539465	    -13.33852300	      1.43085340	     -3.83456819	    -15.70662538	     17.05918960	      1.61588722	      4.06731397	     24.90836292	      1.94586454	     -5.82994881	     -3.23719845	      0.58284237	     -4.45619692	     -0.57986479	      0.00045485	      3.06233015	      7.74829692
      1.08766667	     -0.59891031	      0.82765397	     -4.94843901	      0.03959836	      0.96521685	      0.30509558	    -13.20755949	      1.21373228	     -3.83079601	    -16.49938634	     16.76870020	      1.49255231	      6.75276385	     24.92564987	      2.13545975	     -5.75137312	     -3.64475353	      0.04263068	     -4.95838956	      1.90254913	      0.15619150	      2.89577429	      7.72637207
      1.09183333	     -0.71027345	      0.94416396	     -4.97056869	      0.04581407	      0.96492519	      0.30481857	    -13.00741948	      1.02986096	     -3.72134495	    -17.34336885	     16.47655714	      1.24964774	      6.79635262	     24.99743604	      2.29637016	     -5.65870904	     -4.10673645	     -0.44780050	     -5.41835459	      1.90110057	      0.35372459	      2.76212722	      7.80084252
      1.09600000	     -0.81457315	      1.07164224	     -4.97723010	      0.05206139	      0.96468753	      0.30450708	    -12.78718268	      0.83190576	     -3.64706309	    -18.23468564	     16.14384416	      1.02490630	      6.88124835	     25.05445940	      2.47687497	     -5.52025753	     -4.57008235	     -0.97155332	     -5.94077934	      1.91506057	      0.55021469	      2.60732750	      7.82102732
      1.10016667	     -0.90243320	      1.21133837	     -4.97541843	      0.05833612	      0.96451269	      0.30417856	    -12.55650693	      0.61797664	     -3.59119987	    -19.17121536	     15.75775241	      0.80758814	      7.00557191	     25.09372945	      2.67299601	     -5.38570791	     -5.04674783	     -1.51422213	     -6.45212186	      1.94130003	      0.73498214	      2.43464769	      7.82799180
